<svg version="1.1" id="Layer_1" xmlns="http://www.w3.org/2000/svg" xmlns:xlink="http://www.w3.org/1999/xlink" x="0px" y="0px"
	 width="100%" viewBox="0 0 484 312" enable-background="new 0 0 484 312" xml:space="preserve">
<path fill="#5DC7C0" opacity="1.000000" stroke="none" 
	d="
M290.124817,248.133942 
	C282.807892,254.041855 275.217133,254.779800 267.695618,249.834198 
	C262.927490,246.699036 258.151184,246.380402 252.958099,247.541153 
	C237.533356,250.988876 222.159729,252.394287 206.745453,247.311523 
	C185.062103,240.161606 172.529160,220.852386 170.158340,199.893921 
	C167.752289,178.624207 172.911179,159.436569 186.974091,142.872467 
	C196.160858,132.051758 208.063980,125.699974 221.727005,124.276939 
	C233.670731,123.032982 245.879318,124.315834 257.970154,124.524818 
	C259.261658,124.547134 260.548218,124.853439 262.493317,125.116890 
	C263.044708,117.429054 263.349823,110.027641 264.149017,102.679977 
	C265.872650,86.833488 267.445526,70.952179 269.874481,55.207684 
	C271.346710,45.664459 279.140198,40.446037 288.651855,41.049568 
	C297.772675,41.628304 305.488281,49.360603 304.996948,58.478935 
	C304.308655,71.251755 302.829926,83.980522 301.787628,96.736153 
	C300.786011,108.993546 299.521606,121.246536 299.058319,133.527313 
	C298.073547,159.633057 297.543457,185.755844 296.805695,211.871048 
	C296.613190,218.685684 296.226105,225.496658 296.142761,232.311935 
	C296.070312,238.233994 294.127594,243.360855 290.124817,248.133942 
M221.628387,159.875839 
	C211.155289,165.270676 206.671753,174.695312 205.228973,185.635712 
	C203.878067,195.879471 205.700394,205.521713 215.668381,211.122955 
	C229.639862,218.973801 243.816040,216.463882 257.784241,210.785416 
	C258.575623,210.463699 259.126160,208.653809 259.165039,207.515244 
	C259.556000,196.066574 259.907074,184.614807 260.081207,173.161072 
	C260.194366,165.714005 256.406403,160.995651 249.247910,159.084076 
	C240.230087,156.676041 231.251846,156.373352 221.628387,159.875839 
z"/>
<path fill="#9A32CA" opacity="1.000000" stroke="none" 
	d="
M97.939781,132.140930 
	C110.683983,133.092194 123.017418,133.566635 135.185211,135.243225 
	C139.175095,135.792999 143.820404,138.634613 146.284637,141.863831 
	C153.202042,150.928665 145.787643,163.393402 132.894623,164.705841 
	C128.137100,165.190140 123.262573,164.609909 118.445839,164.409073 
	C109.470352,164.034866 100.494133,163.650833 91.526703,163.125916 
	C88.450485,162.945862 86.699356,163.751633 86.973450,167.176178 
	C88.044914,180.563263 89.084412,193.952896 90.147858,207.340622 
	C90.187035,207.833908 90.326279,208.324478 90.462074,208.804092 
	C95.213219,225.583908 104.948189,228.279434 118.192543,216.917419 
	C121.969055,213.677628 126.553940,210.529785 131.257095,209.429108 
	C137.573639,207.950897 143.396454,210.727310 147.115463,216.490036 
	C150.981491,222.480560 151.460480,228.841705 147.439636,234.812042 
	C140.094696,245.718170 128.969360,251.326630 116.832108,254.963623 
	C90.636978,262.813171 66.995003,249.777908 58.040321,222.970474 
	C52.333221,205.885269 50.938957,188.201752 50.353771,170.386597 
	C50.278774,168.103348 50.343502,165.815521 50.343502,163.595459 
	C44.612888,162.628326 39.284409,162.171051 34.216301,160.771149 
	C26.419086,158.617386 21.866276,152.441513 22.213032,145.599823 
	C22.529301,139.359726 28.102940,133.550049 35.748295,132.194473 
	C40.955032,131.271255 46.287106,131.054932 52.400734,130.437988 
	C53.633320,119.978836 54.906189,109.145386 56.187840,98.312973 
	C57.145367,90.220062 57.713303,82.054482 59.189449,74.056870 
	C60.701694,65.863708 66.636681,61.779240 74.557594,60.606735 
	C81.885925,59.521938 88.490486,61.672600 92.306549,68.028114 
	C94.344902,71.422928 95.046410,76.254990 94.731186,80.312538 
	C93.675224,93.904968 91.873024,107.438911 90.395554,120.999496 
	C90.037621,124.284698 89.829391,127.586220 89.496651,131.542068 
	C92.345955,131.753006 94.905251,131.942474 97.939781,132.140930 
z"/>
<path fill="#E58B38" opacity="1.000000" stroke="none" 
	d="
M319.731598,162.568451 
	C323.190643,146.362320 329.744843,132.409500 341.708862,121.045189 
	C358.132172,105.445045 390.646088,97.948311 413.330933,115.341537 
	C423.060913,122.801842 428.236877,134.146500 423.928009,145.625549 
	C421.018127,153.377731 413.999146,155.651367 406.880432,156.718018 
	C400.566040,157.664154 396.358978,153.773285 393.347321,148.418793 
	C387.657196,138.302063 379.773773,136.719437 370.297424,143.599014 
	C360.316620,150.844788 356.892700,161.478851 355.527802,172.949570 
	C354.136383,184.643387 354.480133,196.146759 360.732666,206.811707 
	C368.268616,219.665695 383.583435,221.534546 393.811493,210.613297 
	C396.199219,208.063736 398.452240,205.375168 400.972443,202.965164 
	C406.708008,197.480286 415.662354,197.324692 422.471741,202.433167 
	C428.041382,206.611588 429.875305,215.125626 426.654205,221.850769 
	C417.248230,241.489151 395.113159,254.423477 371.731506,252.856674 
	C348.672150,251.311478 332.845154,239.219452 323.951630,217.809128 
	C316.531128,199.944962 316.049225,181.647186 319.731598,162.568451 
z"/>
<path fill="#FDFEFE" opacity="1.000000" stroke="none" 
	d="
M221.979599,159.709137 
	C231.251846,156.373352 240.230087,156.676041 249.247910,159.084076 
	C256.406403,160.995651 260.194366,165.714005 260.081207,173.161072 
	C259.907074,184.614807 259.556000,196.066574 259.165039,207.515244 
	C259.126160,208.653809 258.575623,210.463699 257.784241,210.785416 
	C243.816040,216.463882 229.639862,218.973801 215.668381,211.122955 
	C205.700394,205.521713 203.878067,195.879471 205.228973,185.635712 
	C206.671753,174.695312 211.155289,165.270676 221.979599,159.709137 
z"/>
</svg>